<svg width="14" height="14" viewBox="0 0 14 14" fill="none" xmlns="http://www.w3.org/2000/svg">
<rect width="14" height="14" fill="#E5E5E5"/>
<g clip-path="url(#clip0_1_1471)">
<rect width="375" height="812" transform="translate(-324 -61)" fill="#F7F7F9"/>
<path d="M-324 -61H51V657H-244C-288.183 657 -324 621.183 -324 577V-61Z" fill="white"/>
<g filter="url(#filter0_f_1_1471)">
<path fill-rule="evenodd" clip-rule="evenodd" d="M-2 2C-2 1.44772 -1.55228 1 -1 1H15C15.5523 1 16 1.44772 16 2C16 2.55228 15.5523 3 15 3H-1C-1.55228 3 -2 2.55228 -2 2ZM-2 7C-2 6.44772 -1.55228 6 -1 6L15 6C15.5523 6 16 6.44772 16 7C16 7.55229 15.5523 8 15 8L-1 8C-1.55228 8 -2 7.55228 -2 7ZM-1 11C-1.55228 11 -2 11.4477 -2 12C-2 12.5523 -1.55228 13 -1 13H15C15.5523 13 16 12.5523 16 12C16 11.4477 15.5523 11 15 11H-1Z" fill="#6070FF"/>
</g>
<g filter="url(#filter1_d_1_1471)">
<path d="M-324 -61H51V694H-324V-61Z" fill="#3C3A39"/>
</g>
<path fill-rule="evenodd" clip-rule="evenodd" d="M0.292893 0.292893C0.683417 -0.0976311 1.31658 -0.0976311 1.70711 0.292893L7 5.58579L12.2929 0.292893C12.6834 -0.0976311 13.3166 -0.0976311 13.7071 0.292893C14.0976 0.683417 14.0976 1.31658 13.7071 1.70711L8.41421 7L13.7071 12.2929C14.0976 12.6834 14.0976 13.3166 13.7071 13.7071C13.3166 14.0976 12.6834 14.0976 12.2929 13.7071L7 8.41421L1.70711 13.7071C1.31658 14.0976 0.683417 14.0976 0.292893 13.7071C-0.0976311 13.3166 -0.0976311 12.6834 0.292893 12.2929L5.58579 7L0.292893 1.70711C-0.0976311 1.31658 -0.0976311 0.683417 0.292893 0.292893Z" fill="#979493"/>
</g>
<defs>
<filter id="filter0_f_1_1471" x="-374" y="-77" width="494" height="752" filterUnits="userSpaceOnUse" color-interpolation-filters="sRGB">
<feFlood flood-opacity="0" result="BackgroundImageFix"/>
<feBlend mode="normal" in="SourceGraphic" in2="BackgroundImageFix" result="shape"/>
<feGaussianBlur stdDeviation="8" result="effect1_foregroundBlur_1_1471"/>
</filter>
<filter id="filter1_d_1_1471" x="-372" y="-61" width="471" height="851" filterUnits="userSpaceOnUse" color-interpolation-filters="sRGB">
<feFlood flood-opacity="0" result="BackgroundImageFix"/>
<feColorMatrix in="SourceAlpha" type="matrix" values="0 0 0 0 0 0 0 0 0 0 0 0 0 0 0 0 0 0 127 0" result="hardAlpha"/>
<feOffset dy="48"/>
<feGaussianBlur stdDeviation="24"/>
<feColorMatrix type="matrix" values="0 0 0 0 0.145573 0 0 0 0 0.185183 0 0 0 0 0.5375 0 0 0 0.08 0"/>
<feBlend mode="normal" in2="BackgroundImageFix" result="effect1_dropShadow_1_1471"/>
<feBlend mode="normal" in="SourceGraphic" in2="effect1_dropShadow_1_1471" result="shape"/>
</filter>
<clipPath id="clip0_1_1471">
<rect width="375" height="812" fill="white" transform="translate(-324 -61)"/>
</clipPath>
</defs>
</svg>
